<?xml version="1.0" encoding="UTF-8" standalone="no"?>
<!-- Created with Inkscape (http://www.inkscape.org/) -->

<svg
   version="1.1"
   id="svg1"
   width="552.8396"
   height="872.89642"
   viewBox="0 0 552.83962 872.89645"
   xmlns="http://www.w3.org/2000/svg"
   xmlns:svg="http://www.w3.org/2000/svg">
  <defs
     id="defs1" />
  <g
     id="g1"
     transform="translate(-501.3423,-2.551633)">
    <path
       style="fill:#000000;fill-opacity:0.994083;stroke:#000000;stroke-width:3.26929;stroke-dasharray:none;stroke-opacity:1"
       d="m 708.01036,476.89233 1.12741,-8.17369 5.07332,-4.22777 3.66407,-1.40925 3.94591,1.97296 2.81852,4.22777 -0.56371,4.50962 v 3.66406 l -1.6911,2.53666 -8.73739,-1.1274 z"
       id="path2" />
    <path
       style="fill:#000000;fill-opacity:0.994083;stroke:#000000;stroke-width:3.26929;stroke-dasharray:none;stroke-opacity:1"
       d="m 842.42167,475.36362 -1.19209,-8.16451 3.69616,-5.47275 3.12706,-2.37338 4.33912,0.79676 3.88385,3.27625 0.71371,4.48832 1.0198,3.51928 -0.91826,2.90711 -8.70593,1.34899 z"
       id="path2-1" />
    <path
       style="fill:#000000;fill-opacity:0.994083;stroke:#000000;stroke-width:3.62673;stroke-dasharray:none;stroke-opacity:1"
       d="m 702.4049,497.23658 17.54103,7.22804 m 0,0 20.78936,-3.33602"
       id="path3" />
    <path
       style="fill:#000000;fill-opacity:0.994083;stroke:#000000;stroke-width:4.29368;stroke-dasharray:none;stroke-opacity:1"
       d="m 816.4186,500.14515 25.56369,6.95155 m 0,0 30.2977,-3.20841"
       id="path3-4" />
    <path
       style="fill:none;fill-opacity:0.994083;stroke:#000000;stroke-width:3.40157;stroke-dasharray:none;stroke-opacity:1"
       d="m 914.32548,387.26363 c -16.3225,-12.69138 -24.34032,-30.49334 -58.62506,-32.13104 -33.36907,0.45308 -52.42371,15.22059 -74.40873,27.05772 -20.02977,-12.20446 -40.06223,-24.46254 -58.62506,-7.32814"
       id="path4" />
    <path
       style="fill:none;fill-opacity:0.994083;stroke:#000000;stroke-width:3.40157;stroke-dasharray:none;stroke-opacity:1"
       d="m 924.3569,352.39244 c -16.27309,-12.57608 -14.1369,-20.1118 -60.31617,-28.74882 -33.36907,0.45308 -50.7326,11.83837 -72.71762,23.6755 -20.02977,-12.20446 -40.06223,-24.46254 -58.62506,-7.32814"
       id="path4-7" />
    <path
       style="fill:none;fill-opacity:0.994083;stroke:#000000;stroke-width:3.40157;stroke-dasharray:none;stroke-opacity:1"
       d="m 737.88659,511.84189 -35.51325,38.33177 -1.69111,15.78367 10.71035,6.20072 15.21996,-10.14664 14.09257,19.16588 12.40145,2.81852 8.45554,-4.50962 7.32813,-13.52886 6.20073,-5.07333 6.76443,7.32814 19.72959,12.96515 12.40145,-3.38221"
       id="path5" />
    <path
       style="fill:none;fill-opacity:0.994083;stroke:#000000;stroke-width:3.40157;stroke-dasharray:none;stroke-opacity:1"
       d="m 812.85903,577.23138 8.45554,-18.03848 -11.83776,-22.5481 -15.21996,-21.4207"
       id="path6" />
    <path
       style="fill:none;fill-opacity:0.994083;stroke:#000000;stroke-width:3.40157;stroke-dasharray:none;stroke-opacity:1"
       d="m 622.89128,661.22305 60.31617,-38.33177 19.72959,-7.89183 28.18512,-3.94592 18.03849,-3.38222 h 18.60218 21.42069 l 19.72959,6.20073 15.21997,7.32813 18.60218,12.40146 16.34738,12.40145 19.16588,11.27405 15.21997,7.89184 -36.64066,3.94592 -25.93032,-1.69111 -28.18513,3.94592 -20.29329,1.1274 h -38.33177 -31.56734 l -35.51326,-4.50962 -29.87623,-1.1274 z"
       id="path7" />
    <path
       style="fill:none;fill-opacity:0.994083;stroke:#000000;stroke-width:3.40157;stroke-dasharray:none;stroke-opacity:1"
       d="m 741.83251,611.05353 -1.1274,16.91107 2.25481,16.91108 2.81851,15.21997 5.63703,10.14664 15.21996,1.12741 25.93032,2.25481 25.93031,-4.50962 5.63703,-2.81851"
       id="path8" />
    <path
       style="fill:none;fill-opacity:0.994083;stroke:#000000;stroke-width:3.40157;stroke-dasharray:none;stroke-opacity:1"
       d="m 821.87827,667.42378 3.94592,-18.60218 -1.12741,-18.60219 -4.50962,-10.14664 -11.83775,-7.89184 -18.03848,-5.63702 -27.05772,0.5637 -22.5481,3.94592 0.5637,1.1274 1.1274,-1.1274"
       id="path9" />
    <path
       style="fill:none;fill-opacity:0.994083;stroke:#000000;stroke-width:3.40157;stroke-dasharray:none;stroke-opacity:1"
       d="m 839.35305,695.60891 -64.26209,11.27405 -62.57098,-1.69111 -36.64066,-9.01924"
       id="path10" />
    <path
       style="fill:none;fill-opacity:0.994083;stroke:#000000;stroke-width:3.40157;stroke-dasharray:none;stroke-opacity:1"
       d="m 913.19808,4.5096201 29.31253,19.7295879 16.34737,34.385854 5.07332,31.003638 5.07333,23.1118 6.20072,55.80655 11.27405,82.30057 4.50962,31.00364 6.20073,46.78731 2.81855,28.74883 5.0733,92.44721 3.3822,25.36661 -12.40145,33.82215 20.85695,-28.74883 14.0926,-1.6911 10.7104,1.6911 6.7644,11.83776 3.9459,11.27405 -3.3822,20.29329 -7.3281,27.05772 -8.4556,17.47478 -10.1466,19.72959 -4.5097,15.78367 2.8186,29.31253 2.2548,16.91107 2.2548,22.5481 3.3822,28.74883 v 25.93032 20.85699 l -3.3822,10.71035 -45.09622,41.71398 -77.22725,40.02288 -71.02651,23.67551 -63.13468,9.58294 -43.4051,-2.81851 -24.80291,-10.71035 -21.9844,5.63703 -49.04212,-19.16589 -43.96879,-26.49402 -33.25845,-23.6755 -49.60582,-35.51326 23.6755,-64.26209 12.40146,-27.62142 14.65626,-29.31253 16.91108,-42.84139 14.09256,-34.94956 4.50962,-9.58294 -1.1274,-27.05772 -4.50962,-15.78367 2.25481,-23.67551 4.50962,-11.83775 3.38221,-5.63703 10.71035,-9.58294 18.60218,-0.5637 9.58295,-1.12741 14.65626,-29.87623 32.13105,-70.46282 15.78367,-40.02288 34.94955,-72.71762 13.52886,-29.87623 62.57098,-107.10348 29.31253,-37.204368 30.43994,-34.385853 25.93031,-20.856994 z"
       id="path11" />
    <path
       style="fill:none;fill-opacity:0.994083;stroke:#000000;stroke-width:3.40157;stroke-dasharray:none;stroke-opacity:1"
       d="m 1031.5756,512.40559 -13.5289,11.27405 -14.0925,17.47478 14.6562,-17.47478 3.3823,13.52886"
       id="path12" />
    <path
       style="fill:none;fill-opacity:0.994083;stroke:#000000;stroke-width:3.40157;stroke-dasharray:none;stroke-opacity:1"
       d="m 1020.8653,537.2085 -2.8186,19.16588 0.5637,-1.6911"
       id="path13" />
    <path
       style="fill:none;fill-opacity:0.994083;stroke:#000000;stroke-width:3.40157;stroke-dasharray:none;stroke-opacity:1"
       d="m 1021.429,534.95369 -1.6911,7.89183 -0.5637,-0.5637"
       id="path14" />
    <path
       style="fill:none;fill-opacity:0.994083;stroke:#000000;stroke-width:3.40157;stroke-dasharray:none;stroke-opacity:1"
       d="m 631.37903,459.18475 -27.10466,58.19529 -14.34952,35.87381"
       id="path15" />
    <path
       style="fill:none;fill-opacity:0.994083;stroke:#000000;stroke-width:3.40157;stroke-dasharray:none;stroke-opacity:1"
       d="M 613.04353,492.66697 602.67998,480.70903"
       id="path16" />
    <path
       style="fill:none;fill-opacity:0.994083;stroke:#000000;stroke-width:3.40157;stroke-dasharray:none;stroke-opacity:1"
       d="m 611.44914,490.27538 -0.7972,12.75513"
       id="path17" />
    <path
       style="fill:#000000;fill-opacity:0.994083;stroke:#000000;stroke-width:3.40157;stroke-dasharray:none;stroke-opacity:1"
       d="m 883.32184,263.24908 10.71035,-8.45554 v -7.89184 l -5.63702,-3.94592 -6.20073,5.63703 -2.81851,6.20073 z"
       id="path18" />
    <path
       style="fill:#ff8080;fill-opacity:0.994083;stroke:none;stroke-width:3.27094;stroke-dasharray:none;stroke-opacity:1"
       d="M 822.06899,89.892371 C 785.54153,138.47339 734.63484,230.35881 735.01447,243.14471 L 982.54375,228.91752 C 977.41571,173.31816 969.95644,118.91459 960.36135,64.511026 L 943.50102,26.808667 913.23863,6.3775663 881.87115,23.758652 860.76155,42.999896 Z"
       id="path19" />
    <path
       style="fill:#ff8080;fill-opacity:0.994083;stroke:none;stroke-width:3.27094;stroke-dasharray:none;stroke-opacity:1"
       d="m 740.4159,229.37566 c -29.47165,55.71612 -82.91986,167.68042 -78.61558,181.77454 l 45.44015,-52.09398 150.80908,-133.31586 -14.86734,-38.10096 -27.8708,36.1698 -31.36748,10.20633 -21.1096,0.10854 z"
       id="path19-1" />
    <path
       style="fill:#ff8080;fill-opacity:0.994083;stroke:none;stroke-width:3.27094;stroke-dasharray:none;stroke-opacity:1"
       d="m 933.40566,300.92417 c -29.3527,55.75577 12.46139,137.985 12.84102,150.7709 l -24.74082,42.04434 82.82914,-16.90466 c -4.62361,-82.0706 -6.56469,-169.8171 -21.54679,-249.66801 l -92.04505,5.47777 c 0.0452,3.5172 10.70948,36.94669 6.48956,18.9257 l -60.77678,46.49239 z"
       id="path19-1-0" />
    <path
       style="fill:#ff8080;fill-opacity:0.994083;stroke:none;stroke-width:3.40157;stroke-dasharray:none;stroke-opacity:1"
       d="m 895.25082,244.73909 -1.18281,-3.19359 -2.80317,-7.56855 -46.80105,-1.88454 c -40.30477,30.89202 -81.58283,65.87927 -110.64511,103.9256 6.59029,-3.98576 13.3964,-7.61181 23.11868,-6.37757 16.77447,1.53857 22.50384,10.7513 34.67801,15.94392 21.46411,-12.89882 45.08785,-20.28964 69.75463,-23.51728 28.76115,4.70085 49.89522,13.36912 63.77566,28.69905 L 936.705,301.33999 c -33.04782,-5.46816 -59.56078,-8.60734 -93.6705,-5.58037 15.72614,-10.21228 28.04714,-7.83337 39.06259,-30.29344 l -4.38457,-10.36354 3.58738,-7.97196 7.57336,-5.58037 c 1.59439,1.86012 3.45451,2.12585 6.37756,3.18878 z"
       id="path20" />
    <path
       style="fill:#ff8080;fill-opacity:0.994083;stroke:none;stroke-width:3.40157;stroke-dasharray:none;stroke-opacity:1"
       d="m 735.41307,340.40258 c 16.60449,-14.70775 33.67073,-5.31134 55.40511,9.16775 66.54878,-40.30994 102.58115,-24.49301 132.33449,3.58738 9.65377,29.80913 12.19262,49.06856 -8.76915,33.48223 -15.02097,-18.47896 -33.04717,-32.79682 -61.78267,-32.28643 -21.59238,-2.39325 -43.10308,13.08533 -70.95043,25.90886 -12.35653,-8.90718 -25.90886,-13.34621 -38.26539,-15.94391 -10.01902,-0.67901 -16.50735,3.93802 -22.32148,9.56634 l -18.7341,-9.56634 c 9.34303,-11.48206 12.18242,-36.51336 33.08362,-23.91588 z"
       id="path21" />
    <path
       style="fill:#ff8080;fill-opacity:0.994083;stroke:none;stroke-width:3.40157;stroke-dasharray:none;stroke-opacity:1"
       d="M 667.98748,385.57252 C 609.82324,502.34467 546.51392,653.16945 504.51375,759.87099 l 85.11908,60.31617 26.49402,16.34738 3.38222,-175.31149 44.5325,-29.31253"
       id="path22" />
    <path
       style="fill:#ff8080;fill-opacity:0.994083;stroke:none;stroke-width:3.40157;stroke-dasharray:none;stroke-opacity:1"
       d="m 660.9412,473.22826 5.35518,-69.05356 36.64066,-40.02287 18.47127,9.58294 2.71593,2.38572 c 1.85762,-6.42458 11.38596,-7.40508 22.21789,-8.02275 13.21385,2.27416 24.92426,7.5552 34.94956,16.20645 22.23852,-12.98277 44.15714,-26.92523 70.51196,-27.55909 29.37458,-0.22239 46.32317,14.64391 60.98548,32.28642 146.25467,-30.29049 48.29767,69.09755 -49.02754,46.23736 l -9.56635,-3.58738 -141.10365,3.58738 -19.53129,5.97896 -16.74111,9.56635 69.52294,-82.71645"
       id="path23" />
    <path
       style="fill:#ff8080;fill-opacity:0.994083;stroke:none;stroke-width:3.40157;stroke-dasharray:none;stroke-opacity:1"
       d="m 677.35904,453.0759 -5.56656,9.01924 -1.9025,5.07332 -1.19787,5.63703 -1.69111,9.72387 -0.70462,8.17368 0.35231,-24.59152 c 3.37811,-4.45492 6.13318,-9.26587 10.71035,-13.03562 z"
       id="path24" />
    <path
       style="fill:#ff8080;fill-opacity:0.994083;stroke:none;stroke-width:3.40157;stroke-dasharray:none;stroke-opacity:1"
       d="m 714.28739,434.87028 19.13269,8.37056 13.95093,18.73409 -1.19579,11.95794 -7.95193,17.13971 62.95843,-1.59439 c 1.50391,-25.10319 19.44025,-50.19903 55.40511,-58.59389 z"
       id="path25" />
    <path
       style="fill:#ff8080;fill-opacity:0.994083;stroke:none;stroke-width:3.40157;stroke-dasharray:none;stroke-opacity:1"
       d="m 872.13214,437.26187 11.16075,4.38457 8.37055,9.16775 5.58037,10.76215 0.3986,13.15373 -8.76915,19.13269 33.88081,-1.19579 30.29344,-43.44717 -3.18878,-30.29344 -41.05558,-2.39158 z"
       id="path28" />
    <path
       style="fill:#ff8080;fill-opacity:0.994083;stroke:none;stroke-width:3.40157;stroke-dasharray:none;stroke-opacity:1"
       d="m 618.6239,662.07107 26.70606,7.57336 h 25.90886 l 30.69204,189.73258 -23.11868,4.78318 c -22.28591,-8.57547 -48.81097,-14.50149 -63.37706,-27.90185 z"
       id="path29" />
    <path
       style="fill:#ff8080;fill-opacity:0.994083;stroke:none;stroke-width:3.40157;stroke-dasharray:none;stroke-opacity:1"
       d="m 621.9632,664.0074 c -64.92201,-5.81271 73.32826,7.58834 85.75318,8.56399 l 84.29759,2.25481 37.4682,-5.97897 25.51027,1.59439 44.24436,-4.38458 1.99299,21.92289 -61.78267,5.58037 -64.97145,11.95793 -60.98548,-1.59439 -40.25838,-9.96494 z"
       id="path30" />
    <path
       style="fill:#ff8080;fill-opacity:0.994083;stroke:none;stroke-width:3.40157;stroke-dasharray:none;stroke-opacity:1"
       d="m 675.62339,697.94487 c -2.90664,52.12957 1.87524,105.11342 25.90887,160.23635 l 21.92288,9.96495 3.98598,1.19579 40.25838,2.79018 65.37005,-9.56634 70.95042,-23.91588 C 891.68687,787.33849 877.92325,736.66283 839.04852,697.14768 l -62.97846,11.16074 -64.97146,-1.99299 z"
       id="path31" />
    <path
       style="fill:#ff8080;fill-opacity:0.994083;stroke:none;stroke-width:3.40157;stroke-dasharray:none;stroke-opacity:1"
       d="m 839.84572,697.54628 v -5.18178 l 137.11767,-61.38407 41.05561,-6.37756 c 3.1888,13.24818 6.3775,48.24592 9.5663,78.52378 l 0.3986,44.24436 -3.5874,8.76915 0.3986,2.79019 -44.24433,41.05558 -78.52378,39.85979 C 881.2999,792.41257 841.40076,758.67375 839.84572,697.54628 Z"
       id="path32" />
    <path
       style="fill:#ff8080;fill-opacity:0.994083;stroke:none;stroke-width:3.40157;stroke-dasharray:none;stroke-opacity:1"
       d="m 997.69047,509.00948 19.92993,-26.30746 13.5523,-1.99299 9.5663,1.5944 7.972,13.55232 3.1888,9.56635 -11.958,47.43315 -19.9298,3.18878 3.1887,-20.32849 -2.3915,-11.55934 11.9579,-11.16074 -1.5944,0.3986 -14.7481,9.16775 -13.951,19.1327 z"
       id="path33" />
    <path
       style="fill:#ff8080;fill-opacity:0.994083;stroke:none;stroke-width:3.40157;stroke-dasharray:none;stroke-opacity:1"
       d="m 1004.8652,542.09311 12.7552,-14.34953 2.3916,6.77617 -3.5874,20.72709 4.3846,-1.99299 18.3355,-0.3986 -17.5384,33.08362 -3.8892,15.05 1.4977,24.80979 -120.3766,40.25838 -42.25137,-23.51727 -46.63595,-31.09063 3.98598,-33.08363 8.76915,-19.13269 c 48.26166,-61.77454 121.43946,-11.42647 182.15919,-17.13971 z"
       id="path34" />
    <path
       style="fill:#ff8080;fill-opacity:0.994083;stroke:none;stroke-width:3.40157;stroke-dasharray:none;stroke-opacity:1"
       d="m 1002.0751,450.4156 4.7831,23.91587 -12.35651,33.08362 4.38458,3.18878 5.97893,33.08363 -182.95639,15.54532 -11.7728,-23.23543 -17.32485,-23.00193 23.51728,-10.76214 26.70606,7.17476 30.29344,-3.98598 17.13971,-13.15373 z"
       id="path35" />
    <path
       style="fill:#ff8080;fill-opacity:0.994083;stroke:none;stroke-width:3.40157;stroke-dasharray:none;stroke-opacity:1"
       d="m 887.27886,494.26136 c -10.67622,-9.89453 -23.97023,-15.86237 -40.65698,-16.74111 -21.14073,-0.60918 -32.59703,6.04496 -45.04156,11.95794 l 15.94392,8.37055 23.91587,7.17476 31.48923,-3.58738 1.99299,7.17477 14.34952,-5.97897 z"
       id="path36" />
    <path
       style="fill:#ff8080;fill-opacity:0.994083;stroke:none;stroke-width:3.40157;stroke-dasharray:none;stroke-opacity:1"
       d="m 815.39569,505.07746 1.69111,-8.73739 -16.06552,-9.01924 -61.44358,2.2548 1.40926,12.96516 -4.50962,7.89184 2.81851,2.53666 -34.94955,38.04992 -1.97296,14.37441 9.01924,4.79148 15.21996,-10.4285 15.21997,20.29329 10.9922,1.97296 7.60999,-3.94592 6.76443,-13.24701 7.89183,-5.91887 6.20073,7.04628 20.85699,14.37441 9.8648,-3.10036 7.32813,-18.88404 C 813.47099,542.18701 803.11,529.02027 792.84759,515.7878 Z"
       id="path37" />
    <path
       style="fill:#ffffff;fill-opacity:0.994083;stroke:none;stroke-width:3.40157;stroke-dasharray:none;stroke-opacity:1"
       d="m 804.7691,484.29641 2.79019,-20.72708 9.16775,-14.74813 13.15373,-9.16775 16.94041,-4.58387 c 5.40615,-0.4325 10.47029,0.50309 15.34602,2.19229 l 13.95092,4.38457 8.37056,5.18177 5.97897,7.57336 3.58738,7.97196 1.19579,9.96495 -4.18528,10.56284 -4.58387,6.57687 -17.93691,-10.36355 -10.36354,-2.98948 1.59439,-5.38107 -1.99299,-7.97196 -3.78668,-3.78668 -7.17476,-0.1993 -5.38107,5.18178 -1.39509,10.36354"
       id="path27" />
    <path
       style="fill:none;fill-opacity:0.994083;stroke:#000000;stroke-width:3.26929;stroke-dasharray:none;stroke-opacity:1"
       d="m 668.15002,489.71427 c 30.87482,-12.28999 47.58943,-15.46781 70.15323,0 4.43082,-12.59705 6.30494,-14.15364 7.30003,-21.59979 0.87652,-6.55893 -0.16608,-4.58861 -4.1606,-11.75643 l -9.44263,-12.25709 -17.61267,-7.00161 c -32.66224,8.1238 -44.31962,17.49838 -46.23736,52.61492 z"
       id="path1-8" />
    <path
       style="fill:none;fill-opacity:0.994083;stroke:#000000;stroke-width:3.26929;stroke-dasharray:none;stroke-opacity:1"
       d="m 802.77611,487.0866 c 27.17683,-15.24839 55.20205,-16.07416 84.50275,4.78317 4.43082,-7.01668 7.89933,-14.15364 8.89442,-21.59979 0.87652,-6.55893 -1.76047,-11.76337 -5.75499,-18.93119 l -11.03702,-9.8655 -24.78743,-7.79881 c -32.66224,0.39136 -49.89999,16.06556 -51.81773,53.41212 z"
       id="path1" />
    <path
       style="fill:#ffffff;fill-opacity:0.994083;stroke:none;stroke-width:3.40157;stroke-dasharray:none;stroke-opacity:1"
       d="m 670.04302,487.0866 36.27241,-9.56635 1.59439,-10.36354 6.37757,-5.18178 3.18878,-1.59439 3.58738,1.1958 3.18878,2.79018 1.5944,5.18177 v 6.37757 l -0.7972,3.58738 11.55934,7.17476 7.17476,-16.34251 -0.3986,-7.57336 -12.35653,-17.13971 -17.53831,-7.17476 -22.32148,6.77616 -11.95794,11.16074 -6.77616,12.75514 z"
       id="path26" />
    <path
       style="fill:#ff8080;fill-opacity:0.994083;stroke:none;stroke-width:3.40157;stroke-dasharray:none;stroke-opacity:1"
       d="m 748.3151,499.72229 -8.45555,-9.01925 c -7.55209,-5.8496 -16.61478,-9.80986 -27.90327,-10.4285 -18.87314,0.81462 -31.82022,6.70874 -45.6599,11.83776 -7.60356,46.69336 -3.68461,93.38671 -2.25481,140.08007 l 17.75662,-9.86479 20.857,-9.30109 45.6599,-7.04628 h 14.09256 l 29.03068,-1.69111 19.44774,7.04628 3.10036,-31.56734 -12.40145,3.10036 -20.29329,-13.81071 -6.48258,-5.63702 -5.35517,4.50962 -5.63703,11.5559 -10.4285,6.20073 -13.81071,-3.38222 -13.24701,-18.88404 -14.65626,10.4285 -11.5559,-7.32813 1.40926,-16.62923"
       id="path38" />
    <path
       style="fill:#000000;fill-opacity:0.994083;stroke:#000000;stroke-width:4.29368;stroke-dasharray:none;stroke-opacity:1"
       d="m 673.07036,497.59683 25.56369,6.95155 m 0,0 30.2977,-3.20841"
       id="path3-4-6" />
    <path
       style="fill:#ff8080;fill-opacity:0.994083;stroke:none;stroke-width:4.29354;stroke-dasharray:none;stroke-opacity:1"
       d="m 629.65571,458.85385 -17.47478,37.20436 1.12741,-5.07332 -9.01924,-11.83775 -3.38222,3.38221 8.45554,8.45554 -0.5637,11.27405 -18.03848,46.22361 -1.69111,-22.5481 -4.50962,-18.60218 2.81851,-22.54811 6.20073,-12.40145 12.96516,-12.96516 z"
       id="path39" />
    <path
       style="fill:#ffffff;fill-opacity:0.994083;stroke:none;stroke-width:4.29354;stroke-dasharray:none;stroke-opacity:1"
       d="m 742.58784,611.05054 -0.3986,23.91587 5.58037,25.51026 5.58037,9.16776 33.88082,1.99299 15.14672,-1.5944 18.7341,-3.58738 4.38457,-20.32849 -3.18878,-18.7341 -4.78317,-7.57336 -27.10466,-10.76214 -33.08362,0.79719 z"
       id="path40" />
    <path
       style="fill:#ffffff;fill-opacity:0.994083;stroke:none;stroke-width:4.29354;stroke-dasharray:none;stroke-opacity:1"
       d="m 739.00046,611.44914 0.39859,19.92989 1.99299,16.34251 7.57336,22.72008 -35.87381,1.1958 -9.96494,-2.39159 -20.32849,-2.39159 -27.90186,-1.99299 -9.96494,-0.79719 -17.13971,-3.18879 15.14672,-10.76214 40.65698,-25.90886 19.5313,-7.57336 z"
       id="path41" />
    <path
       style="fill:#ffffff;fill-opacity:0.994083;stroke:none;stroke-width:4.29354;stroke-dasharray:none;stroke-opacity:1"
       d="m 823.5032,622.60988 2.79019,8.76915 1.19579,16.34251 -3.58738,19.1327 8.76916,-1.19579 21.12568,1.59439 33.48222,-3.58738 -30.69203,-17.13971 z"
       id="path42" />
  </g>
</svg>
