<?xml version="1.0" encoding="UTF-8" standalone="no"?>
<!-- Created with Inkscape (http://www.inkscape.org/) -->

<svg
   version="1.1"
   id="svg1"
   width="515.02441"
   height="513.87628"
   viewBox="0 0 515.02441 513.87628"
   xmlns="http://www.w3.org/2000/svg"
   xmlns:svg="http://www.w3.org/2000/svg">
  <defs
     id="defs1" />
  <g
     id="layer2"
     transform="translate(-382.73513,-103.1405)">
    <path
       style="opacity:1;fill:#000000"
       d="m 465.74839,103.1405 -28.94398,28.65014 c -20.16077,3.58121 -49.99726,30.85281 -53.18641,65.82185 -9.07375,63.42933 54.13944,99.59895 82.13039,95.35353 l 0.29385,-106.96051 59.06336,0.29385 12.3416,-23.80166 -71.69881,-36.14325 z"
       id="path1" />
    <path
       style="opacity:1;fill:#000000"
       d="m 814.67866,615.57456 28.96213,-28.63178 c 20.16304,-3.56843 50.01681,-30.82111 53.22813,-65.78812 9.11395,-63.42357 -54.0763,-99.63325 -82.06993,-95.40558 l -0.36166,106.9603 -59.06316,-0.33129 -12.35668,23.79384 71.67588,36.18869 z"
       id="path1-2" />
    <path
       style="fill:#000000"
       d="m 464.92096,617.01678 -28.60711,-29.3964 c -20.11754,-4.10488 -49.63322,-32.1463 -52.41341,-67.19007 -8.33171,-63.65044 55.29994,-98.16693 83.23935,-93.19428 l -0.9564,106.94293 59.06276,1.24286 12.06253,24.11715 -72.11637,34.26934 z"
       id="path1-2-9" />
    <path
       style="fill:#000000"
       d="m 814.69188,104.5005 28.72378,29.28241 c 20.13371,4.02484 49.76066,31.94867 52.68019,66.98111 8.58475,63.61681 -54.90913,98.38606 -82.8681,93.52455 l 0.53112,-106.94589 -59.06723,-1.00797 -12.15834,-24.06899 71.97953,-34.55586 z"
       id="path1-2-9-7" />
    <path
       style="fill:#000000"
       d="m 599.65772,297.33548 25.55714,32.93338 -17.66144,17.34977 -41.97188,-17.24587 9.0385,-9.55796 29.60887,12.98635 4.88287,-5.19454 c -5.6058,-6.9701 -9.73675,-11.23633 -18.38867,-23.79099 z"
       id="path3" />
    <path
       style="fill:#000000"
       d="m 549.0629,347.51474 c 32.5213,-30.83871 69.09457,-66.07196 99.00793,-98.38459 l -7.8957,-8.31127 -20.98594,20.3626 c -16.07397,-21.7407 -53.57447,-32.27153 -82.28152,-4.15563 -26.97601,24.83557 -20.65416,67.00346 12.15523,90.48889 z"
       id="path4" />
    <path
       style="fill:#000000"
       d="m 680.16759,421.98879 -25.903,-32.66206 17.47751,-17.53504 42.1514,16.80233 -8.93721,9.65274 -29.74416,-12.67341 -4.82782,5.24574 c 5.67898,6.9106 9.85469,11.13303 18.63852,23.59576 z"
       id="path3-0" />
    <path
       style="fill:#000000"
       d="m 730.0344,372.07637 c -32.12553,31.25079 -68.24668,66.94741 -97.74568,99.63875 l 8.00101,8.20994 20.72464,-20.62848 c 16.34982,21.53403 53.98152,31.58595 82.32782,3.10638 26.65721,-25.17744 19.79832,-67.26132 -13.30779,-90.32659 z"
       id="path4-9" />
    <path
       style="fill:#000000"
       d="M 771.05602,219.21028 640.5877,354.38017 c -0.0172,0.99723 -134.75564,124.8193 -142.67344,139.87144 0.0158,3.00505 0.69246,5.93894 8.16471,7.34618 10.56103,-9.56699 93.40122,-97.53894 143.32415,-146.04223 54.01864,-53.13221 80.73466,-77.26827 132.8191,-128.70524 0.10621,-7.46483 -1.98189,-10.25307 -11.1662,-7.64004 z"
       id="path5" />
  </g>
</svg>
